<svg xmlns="http://www.w3.org/2000/svg" viewBox="0 0 330 360"><path fill="#010101" d="M261.6 225.7H68.2c-34.2.1-34.1-31.9-34.2-42.5-.1-33.8 6.7-69.8 17-100.7 8.6-25.4 22.8-56.3 113.8-56.2 91 0 105.2 30.8 113.8 56.1 10.5 30.9 17.1 67 17.1 100.8 0 10.6.1 42.6-34.1 42.5zm-34.1 39.4c.1-9.3 7.8-16.8 17-16.9 9.5.1 17 7.6 17.1 16.9.1 9.3-7.6 16.8-17 16.8-9.5 0-17-7.5-17.1-16.8zM85.2 281.9c-9.3.1-17-7.6-16.9-16.9.1-9.3 7.6-16.8 17-16.8 9.5-.1 17 7.6 17.1 16.7 0 9.6-7.7 17.1-17.2 17zm244.7-66.8c0-68.2-26.3-161.5-51.3-186.2C251.5 2.3 193.4.9 164.9 1 136.3.9 78.2 2.3 51.2 29.2 26.1 53.7 0 147.1 0 215.2c.1 32.9 0 89.2 34.2 89.3l22.8-.2-28.5 56.2 57 .1 11.3-56.2 136.5-.1 11.4 56.2 56.8-.1-28.5-56.1h22.8c34.1 0 34-56.1 34.1-89.2z"/></svg>
